<svg id="Layer_2" data-name="Layer 2" xmlns="http://www.w3.org/2000/svg" width="33" height="33" viewBox="0 0 33 33">
  <g id="invisible_box" data-name="invisible box" transform="translate(0 0)">
    <rect id="Rectangle_32" data-name="Rectangle 32" width="33" height="33" fill="none"/>
    <rect id="Rectangle_33" data-name="Rectangle 33" width="33" height="33" fill="none"/>
  </g>
  <g id="icons_Q2" data-name="icons Q2" transform="translate(2.366 2.366)">
    <path id="Path_17" data-name="Path 17" d="M17.859,6.495h5.613a7.484,7.484,0,0,1,2.564.485,4.643,4.643,0,0,1,2.633,2.633,7.484,7.484,0,0,1,.485,2.564c.069,1.455.069,1.94.069,5.613s0,4.158-.069,5.613a7.484,7.484,0,0,1-.485,2.564A4.643,4.643,0,0,1,26.036,28.6a7.484,7.484,0,0,1-2.564.485H12.246A7.484,7.484,0,0,1,9.682,28.6a4.643,4.643,0,0,1-2.633-2.633A7.484,7.484,0,0,1,6.564,23.4c-.069-1.455-.069-1.94-.069-5.613s0-4.158.069-5.613a7.484,7.484,0,0,1,.485-2.564A4.643,4.643,0,0,1,9.682,6.98a7.484,7.484,0,0,1,2.564-.485h5.613m0-2.495H12.177a12.4,12.4,0,0,0-3.4.624A6.929,6.929,0,0,0,6.356,6.356,5.89,5.89,0,0,0,4.762,8.781a10.048,10.048,0,0,0-.693,3.4C4,13.632,4,14.117,4,17.859s0,4.227.069,5.682a10.048,10.048,0,0,0,.693,3.4,5.89,5.89,0,0,0,1.594,2.425,5.89,5.89,0,0,0,2.425,1.594,10.048,10.048,0,0,0,3.4.693H23.541a10.048,10.048,0,0,0,3.4-.693,5.89,5.89,0,0,0,2.425-1.594,6.929,6.929,0,0,0,1.663-2.425,12.4,12.4,0,0,0,.624-3.4c.069-1.455.069-1.94.069-5.682s0-4.227-.069-5.682a12.4,12.4,0,0,0-.624-3.4,6.929,6.929,0,0,0-1.663-2.425,6.929,6.929,0,0,0-2.425-1.663,12.4,12.4,0,0,0-3.4-.624H17.859" transform="translate(-4 -4)" fill="#fff"/>
    <path id="Path_18" data-name="Path 18" d="M20.837,13.7a7.137,7.137,0,1,0,7.137,7.137A7.137,7.137,0,0,0,20.837,13.7m0,11.78a4.643,4.643,0,1,1,4.643-4.643,4.643,4.643,0,0,1-4.643,4.643" transform="translate(-6.978 -6.978)" fill="#fff"/>
    <path id="Path_19" data-name="Path 19" d="M35.626,12.563A1.663,1.663,0,1,1,33.963,10.9a1.663,1.663,0,0,1,1.663,1.663" transform="translate(-12.69 -6.119)" fill="#fff"/>
  </g>
</svg>
