<svg xmlns="http://www.w3.org/2000/svg" width="40" height="40" viewBox="0 0 40 40">
  <g id="Group_34" data-name="Group 34" transform="translate(0.43)">
    <g id="Group_16" data-name="Group 16" transform="translate(8.918 4.661)">
      <g id="Group_15" data-name="Group 15">
        <g id="Rectangle_12" data-name="Rectangle 12" transform="translate(0 11.858)" fill="none" stroke="#000" stroke-width="2.5">
          <rect width="21.728" height="18.697" stroke="none"/>
          <rect x="1.25" y="1.25" width="19.228" height="16.197" fill="none"/>
        </g>
        <path id="Path_11" data-name="Path 11" d="M52.511,21.613a8.317,8.317,0,0,0-6.971-3.774h0a8.323,8.323,0,0,0-8.323,8.323V30.1" transform="translate(-34.676 -17.839)" fill="none" stroke="#000" stroke-width="2.5"/>
      </g>
      <path id="Union_2" data-name="Union 2" d="M0,8.819l1.228-4.97A1.993,1.993,0,0,1,0,1.993,1.965,1.965,0,0,1,1.936,0,1.965,1.965,0,0,1,3.872,1.993,1.993,1.993,0,0,1,2.644,3.849l1.228,4.97Z" transform="translate(8.928 16.797)"/>
    </g>
    <rect id="Rectangle_14" data-name="Rectangle 14" width="40" height="40" transform="translate(-0.43)" fill="none"/>
  </g>
</svg>
