<svg xmlns="http://www.w3.org/2000/svg" width="57" height="57" viewBox="0 0 57 57">
  <g id="Group_115" data-name="Group 115" transform="translate(-292 -481)">
    <g id="Group_14" data-name="Group 14" transform="translate(310.791 495.212)">
      <g id="Group_13" data-name="Group 13">
        <g id="Rectangle_11" data-name="Rectangle 11" transform="translate(0 10.592)" fill="none" stroke="#000" stroke-miterlimit="10" stroke-width="2.3">
          <rect width="19.409" height="16.702" stroke="none"/>
          <rect x="1.15" y="1.15" width="17.109" height="14.402" fill="none"/>
        </g>
        <path id="Path_9" data-name="Path 9" d="M-242.943,28.431V25.274a7.435,7.435,0,0,0-7.435-7.435h0a7.435,7.435,0,0,0-7.435,7.435v3.157" transform="translate(260.083 -17.839)" fill="none" stroke="#000" stroke-miterlimit="10" stroke-width="2.3"/>
      </g>
      <path id="Union_1" data-name="Union 1" d="M0,7.878l1.1-4.44A1.781,1.781,0,0,1,0,1.78,1.755,1.755,0,0,1,1.729,0,1.755,1.755,0,0,1,3.458,1.78a1.781,1.781,0,0,1-1.1,1.658l1.1,4.44Z" transform="translate(7.975 15.004)"/>
    </g>
    <circle id="Ellipse_4" data-name="Ellipse 4" cx="27.5" cy="27.5" r="27.5" transform="translate(293 482)" fill="none" stroke="#0c0d17" stroke-width="2"/>
  </g>
</svg>
