<svg xmlns="http://www.w3.org/2000/svg" width="40" height="40" viewBox="0 0 40 40">
  <g id="Group_33" data-name="Group 33" transform="translate(0.108)">
    <g id="Group_14" data-name="Group 14" transform="translate(8.684 4.661)">
      <g id="Group_13" data-name="Group 13">
        <g id="Rectangle_11" data-name="Rectangle 11" transform="translate(0 11.858)" fill="none" stroke="#000" stroke-width="2.5">
          <rect width="21.728" height="18.697" stroke="none"/>
          <rect x="1.25" y="1.25" width="19.228" height="16.197" fill="none"/>
        </g>
        <path id="Path_9" data-name="Path 9" d="M-241.167,29.7V26.162a8.323,8.323,0,0,0-8.323-8.323h0a8.323,8.323,0,0,0-8.323,8.323V29.7" transform="translate(260.354 -17.839)" fill="none" stroke="#000" stroke-width="2.5"/>
      </g>
      <path id="Union_1" data-name="Union 1" d="M0,8.819l1.228-4.97A1.993,1.993,0,0,1,0,1.993,1.965,1.965,0,0,1,1.936,0,1.965,1.965,0,0,1,3.871,1.993,1.993,1.993,0,0,1,2.643,3.849l1.228,4.97Z" transform="translate(8.928 16.797)"/>
    </g>
    <rect id="Rectangle_13" data-name="Rectangle 13" width="40" height="40" transform="translate(-0.108)" fill="none"/>
  </g>
</svg>
