<svg id="Layer_1" data-name="Layer 1" xmlns="http://www.w3.org/2000/svg" viewBox="0 0 328.37 235.15"><defs><style>.cls-1{fill:#fff;}</style></defs><path class="cls-1" d="M139.19,171.77c0,.23,0,.65,0,.71,0,.35,1.38.26,1.52.26a2.64,2.64,0,0,0,1.93-.85,2.32,2.32,0,0,0,.51-1.64c0-2.47,0-4.63,0-6.85,0-2,0-4,0-5.94a2.7,2.7,0,0,0-.58-2.07c-.63-.66-1.6-.67-2.71-.69,0,0-.81,0-.8.2,0,2.67.1,10.2.11,13.64Z"/><path class="cls-1" d="M143.07,193.05l0-.38a10.79,10.79,0,0,0,0-2.6,2.65,2.65,0,0,0-.43-2.34,2.89,2.89,0,0,0-2.59-.74l-.43,0h-.23l-.12.18c-.26.37-.15,6.83-.13,9.12,0,2.49-.11,9.07,0,9.12a1.41,1.41,0,0,0,.44,0h.24a4,4,0,0,0,2.93-.92,1.91,1.91,0,0,0,.42-1.6c-.06-1.37,0-2.89,0-4.37A50,50,0,0,0,143.07,193.05Z"/><path class="cls-1" d="M119,66.49h0a28.64,28.64,0,0,0-.41-3.76c-.1-.73-.21-1.43-.28-2.14,0-.3-.1-.79-.15-1.37a23.55,23.55,0,0,0-.53-3.75,11,11,0,0,0-.24-2.52,16.61,16.61,0,0,1-.25-1.87,11.69,11.69,0,0,1-.16-1.45,6.35,6.35,0,0,0-.67-2.92l-.09-.11a2.71,2.71,0,0,0-2.73-.29.64.64,0,0,0-.81.94c.22,1.21.35,2.32.47,3.49.08.74.17,1.48.28,2.29.18,1.43.35,2.86.54,4.33.29,2.47.6,5,.91,7.46a21.89,21.89,0,0,1,.36,3.28v.52l.51-.1.51-.07C117.24,68.32,118.92,68.1,119,66.49Z"/><path class="cls-1" d="M103.6,192c0-.2,0-.39,0-.59a6.92,6.92,0,0,0-.17-1.67c0-1.46-.16-2.92-.29-4.33-.11-1.26-.22-2.55-.27-3.84-.22-1.75-.35-3.68-.47-5.54s-.24-3.75-.46-5.54c0-.48-.06-1-.08-1.43-.09-1.68-.51-5.85-.57-5.9l-.31-.25-.28.19c-.18.11-.74,8.12-1,11.77-.25,3.22-.52,6.54-.73,9.68-.21,1.65-.32,3.23-.42,4.76-.08,1.22-.16,2.5-.29,3.72a.72.72,0,0,0,.15.71.91.91,0,0,0,.7.25,3.8,3.8,0,0,0,.66-.07l.29-.06a10.74,10.74,0,0,0,2.85,0,.63.63,0,0,0,.66,0c.43-.29.27-1,.13-1.65A1.65,1.65,0,0,1,103.6,192Z"/><path class="cls-1" d="M178,59.39c.13,3.1.27,6.2.43,9.21,0,1.34.07,2.69.15,4s.16,2.8.14,4.12a.74.74,0,0,0,.25.69c.36.3.91.16,1.38,0a2.27,2.27,0,0,1,.28-.07,2.56,2.56,0,0,0,1-.09,1.6,1.6,0,0,1,.75,0h.08l.47-.06,1-.15.45-.08-.1-.45c-.89-4.11-1.72-8.32-2.52-12.39-1.07-5.37-2.17-10.93-3.38-16.26l-.15-.42-.81.17,0,.39C177.69,51.74,177.85,55.63,178,59.39Z"/><path class="cls-1" d="M64.12,187c-.12-3.74-.09-7.62-.07-11.37,0-3.26.06-6.63,0-10v-.1h.08v-.11H64c0-.5,0-1,0-1.56s0-1.16,0-1.69c0-.27,0-.55,0-.83a16.71,16.71,0,0,0-.09-2.49,8.1,8.1,0,0,1,.08-1,4.44,4.44,0,0,0-.22-2.47c-.53-1.19-1.7-1.18-2.56-1.17a4.54,4.54,0,0,1-.75,0l-.54-.08,0,.54a6.76,6.76,0,0,1,0,.91c0,.2,0,.38,0,.58,0,3.16,0,6.27,0,9.27v.36c0,1.28,0,2.55,0,3.81,0,3.74,0,7.61,0,11.62-.06,3.59,0,6.93,0,10.16,0,3.6.05,7,0,10.71a5.72,5.72,0,0,1,0,1.17,5.87,5.87,0,0,0,.06,1.39l0,.27.26.07a3.74,3.74,0,0,0,1,.14,3,3,0,0,0,1.74-.49,2,2,0,0,0,.82-1.55q0-3.22,0-6.37v-.24l.07-.2a.11.11,0,0,0,0-.05.82.82,0,0,0,0-.25v-.43h-.14C64,192.67,64,189.84,64.12,187Z"/><path class="cls-1" d="M180,171.77c0,.23,0,.65,0,.71,0,.35,1.37.26,1.52.26a2.64,2.64,0,0,0,1.92-.85,2.32,2.32,0,0,0,.51-1.64c0-2.47,0-4.63-.05-6.85,0-2,0-4,.05-5.94a2.78,2.78,0,0,0-.58-2.07c-.63-.66-1.61-.67-2.73-.69,0,0-.8,0-.8.2,0,2.67.1,10.2.12,13.64Z"/><path class="cls-1" d="M134.08,124.51l119.47-14.69L240.05,0,0,29.51,13.5,139.33l14.2-1.75v97.57H328.37V124.51Zm64-101.32c.61-1.24,1.83-1.57,3.11-1.73l.86-.08c.39,0,.79-.07,1.14-.12l2.32-.28c1.17-.15,2.26-.29,3.61-.4a3.8,3.8,0,0,1,3.23.2c1.3.91,1.49,3.2,1.67,5.41.08.89.14,1.72.28,2.47.35,2.37.63,4.76.9,7.08s.55,4.82.91,7.19c.46,4.46,1,8.89,1.58,13.17s1.13,8.77,1.59,13.3c.48,2.83.81,5.78,1.13,8.64.18,1.65.37,3.29.57,4.91l.06.42.42-.05c1.95-.22,3.62-.45,5-.64,3.37-.47,5.24-.73,6.17,0s1.24,2.94,1.73,7.24c.12,1.09.26,2.33.43,3.73a2.25,2.25,0,0,1-.58,1.72c-.75.81-2.19,1.25-4.43,1.33-1.16.12-2.24.28-3.34.43-.83.11-1.67.23-2.57.33-1.7.18-3.35.38-5,.59-1.47.18-3,.37-4.5.54a5.34,5.34,0,0,0-1.28.15,4.69,4.69,0,0,1-1.28.11h-.11c-.25,0-.5.1-.74.15a3.3,3.3,0,0,1-1.91.07l-.12,0c-1.82-.14-2.37-2.5-2.29-4.06v-.12a24.05,24.05,0,0,1-.47-3.62l0-.38c-.19-1.37-.38-2.67-.45-4v0l0-.05a26.75,26.75,0,0,1-.56-4.61V82c-.49-3.08-.86-6.14-1.21-9.1-.27-2.18-.53-4.43-.85-6.68l-.09-.9c-.27-2.55-.51-5-.92-7.17l-.08-.82a41.43,41.43,0,0,0-.76-5.77c-.29-3.4-.73-6.82-1.17-10.13-.33-2.6-.68-5.29-.95-7.94a33.5,33.5,0,0,1-.53-4.08c0-.47-.08-.93-.13-1.42,0-.33-.1-.66-.16-1A7.91,7.91,0,0,1,198.12,23.19Zm-32.46,8.34a6.71,6.71,0,0,1,0-1.61v-.14a3.84,3.84,0,0,1,.68-3.26,3.36,3.36,0,0,1,2.78-1c1.19-.13,2.38-.29,3.55-.46,2.23-.32,4.34-.6,6.62-.74.28,0,.56-.1.84-.15,1.68-.31,3.27-.6,4.55.68a6.42,6.42,0,0,1,.73,2.1,14.52,14.52,0,0,0,.43,1.55c.34,1.52.71,3,1.08,4.4.4,1.59.78,3.09,1.11,4.62C193.21,57.7,198.25,77.94,203,96.94a2.53,2.53,0,0,1-.4,2.17c-1.06,1.35-3.74,1.48-5.5,1.56H197c-.51,0-1,.16-1.6.25-2,.36-4,.73-5.49-.62-1.15-1.25-1.53-3.56-1.83-5.43-.1-.61-.19-1.18-.3-1.68l-.06-.14a1.3,1.3,0,0,1-.12-.66,1.85,1.85,0,0,0-.29-1.2l-.15-.2-.44.07c-.5.06-1.12.15-1.69.19-1,.17-2,.27-3.15.37l-1,.1-.07,0a1.39,1.39,0,0,1-.38,0,1,1,0,0,0-.85.29.76.76,0,0,0-.07.69c0,.85,0,1.66.09,2.5,0,.61.06,1.24.08,1.89,0,.35,0,.68.06,1a5.21,5.21,0,0,1-.25,2.81c-.74,2.07-2.82,2.29-4.82,2.49-.4,0-.79.08-1.12.13-.57.06-1.18.14-1.79.23-2.12.31-4.31.62-5.39-.41-.64-.63-.88-1.71-.7-3.38,0-1.18,0-2.36,0-3.53,0-2.11-.06-4.09,0-6.08-.06-5.51,0-11.25,0-16.8,0-3.4,0-6.8,0-10.18,0-7.11,0-13.6,0-20.48V35.37a3.82,3.82,0,0,1,0-.75,4,4,0,0,0-.07-1.44A8.3,8.3,0,0,0,165.66,31.53ZM138,30c.68-.8,1.94-1.16,3.86-1.11H142l.1-.05a39,39,0,0,1,5.42-.65l.25-.06c1.57-.35,3.35-.75,4.49.48a3.66,3.66,0,0,1,1,2.75,8.86,8.86,0,0,0,.25,1.79c.1,1.28.26,2.65.43,4,.12,1,.25,2,.34,3,.78,5.64,1.43,11.11,2.13,16.91l.27,2.21.19,1.53c1.71,13.77,3.36,27.05,5.08,41.11v0a2.55,2.55,0,0,1-.46,2.29c-1,1.13-3.1,1.45-4.76,1.37h-.08l-.08,0a8,8,0,0,1-2.14.31l-.69,0h-.1l-.09.05a2.89,2.89,0,0,1-1.42.25l-.7,0-.31.06c-1.71.39-2.93.3-3.7-.28s-1.3-1.94-1.47-4.46c-.29-2.8-.59-5.14-.94-7.35-.74-7-1.62-14.08-2.62-20.9a49.65,49.65,0,0,0-.6-5.52c-.08-.6-.15-1.14-.2-1.56-.11-.75-.19-1.52-.28-2.31-.16-1.39-.32-2.82-.58-4.25-.33-3.91-.78-7.64-1.36-11.08-.12-.83-.19-1.73-.26-2.59a27.18,27.18,0,0,0-.61-4.38c-.08-1.69-.31-3.37-.53-5-.1-.66-.19-1.31-.27-2C137.17,32.33,137.28,30.88,138,30ZM64.39,38.36a17.62,17.62,0,0,0,2.23-.26c1.53-.16,3-.35,4.37-.54,1.9-.24,3.69-.48,5.63-.63,1.11-.19,2.22-.33,3.3-.45s2.22-.26,3.3-.45a16.86,16.86,0,0,0,1.7-.2c1.93-.3,3.92-.61,4.76,1.22A31.25,31.25,0,0,1,90.59,43c.06.67.12,1.34.2,2.05.36,3.08.77,4.19-.13,5.33-.57.72-1.62,1.1-3.26,1.16l-3,.38c-1.59.21-3.17.38-4.6.6-.42,0-.85.08-1.28.13a15.17,15.17,0,0,1-1.66.16h-.5l.07.49c.07.52.19,1.25.29,1.9.17,1.32.32,2.65.48,4,.25,2.09.48,4.07.76,6.07.08.4.12.84.17,1.3s.12,1.12.23,1.65l.08.32h.33a11,11,0,0,0,1.91-.18,12.75,12.75,0,0,1,1.4-.18l1.6-.18c1.26-.13,2.55-.26,3.9-.52,1.69-.38,3-.26,3.79.37A4.09,4.09,0,0,1,92.63,71,23.26,23.26,0,0,0,93,74.26c.13.85.27,1.74.32,2.64l0,.15c.18,1.46.34,2.83-.77,3.77a6.32,6.32,0,0,1-3.13.81,13.35,13.35,0,0,0-2,.28,39.63,39.63,0,0,0-4,.44c-.84.12-1.68.24-2.52.33a.71.71,0,0,0-.65.18,1,1,0,0,0-.09,1,2.06,2.06,0,0,1,.07.34l0,.08,0,.09a9.39,9.39,0,0,1,.21,1.57,12.65,12.65,0,0,0,.14,1.27c.29,2.59.62,5.22,1.1,8.79.05.32.08.64.1,1a7,7,0,0,0,.23,1.58l.09.3.31,0a13.65,13.65,0,0,0,2.63-.25c.63-.1,1.22-.2,1.8-.24C88,98.19,89,98.07,90.06,98c.77-.1,1.53-.18,2.31-.29q.39,0,.78-.12c1.33-.2,2.7-.41,3.69.66a3.05,3.05,0,0,1,.85,2.64v.1c0,.22.1.44.15.65A3.74,3.74,0,0,1,98,103v.12c.09.72.18,1.44.28,2.17.22,1.64.44,3.35.59,5.11.08,2-1.4,2.86-5,3l-1.42.19a45.32,45.32,0,0,1-4.87.54c-3.26.48-6.43.86-9.5,1.22-2.4.28-4.88.57-7.36.92-2.57-.16-2.91-2.22-3.15-5.36a15.17,15.17,0,0,0-.33-2.61c-.23-1.74-.42-3.45-.62-5.16-.23-2-.47-4.12-.76-6.22q-.73-5.77-1.4-11.39C63.69,79,62.94,72.74,62,66.46A16,16,0,0,0,61.68,63c-.11-.6-.21-1.18-.27-1.7a53.75,53.75,0,0,0-.69-5.88c-.16-2.26-.48-4.48-.79-6.63-.35-2.36-.71-4.81-.85-7.27C59.17,39,61.35,38.59,64.39,38.36ZM26,103.91c-.16-1.35-.34-2.69-.51-4l-.52-4.14a3.24,3.24,0,0,1,1.63-4,8.92,8.92,0,0,1,1-.18c.3,0,.62-.06,1-.09s.59,0,.89-.08l.1,0a1.89,1.89,0,0,1,.92-.12h.06l.21,0a3.84,3.84,0,0,1,1.14-.15l.09,0,.09,0a7.09,7.09,0,0,1,1.27-.19l.45,0a2.85,2.85,0,0,0,.77-.11,2.06,2.06,0,0,1,.73-.07,10.18,10.18,0,0,0,1.39-.16,7.61,7.61,0,0,1,1.77-.15,3,3,0,0,1,2.18,3.12c0,.42.1.82.17,1.2a7.47,7.47,0,0,1,.16,1.68v.15a4.59,4.59,0,0,1,.25,2l0,.17.1.13a2.55,2.55,0,0,1,.18,1.16,7.22,7.22,0,0,0,.17,1.58,1.4,1.4,0,0,0,.16.72,1.6,1.6,0,0,0,.07.77l.06.24a1.85,1.85,0,0,0,0,.82,1.8,1.8,0,0,1,.05.61v.16a2.06,2.06,0,0,0,2,1.66,1.82,1.82,0,0,0,1.85-1.36,6.72,6.72,0,0,0-.17-3.1,1.8,1.8,0,0,1,0-.52,1.72,1.72,0,0,0-.18-1,3.33,3.33,0,0,0,0-.46,4.37,4.37,0,0,1,0-.81v-.07l0-.06c0-.18-.08-.37-.13-.56a1.56,1.56,0,0,1-.11-1l.09-.19-.1-.19a6.11,6.11,0,0,1-.3-1.9,14.71,14.71,0,0,0-.17-1.58c-.42-2.57-2.49-4.41-4.25-5.75a40,40,0,0,0-6-3.42c-1.46-.71-3-1.46-4.36-2.31-3.72-2.23-7.8-6.5-8.13-11.85-.42-2.37-.72-4.87-1-7.95A17.94,17.94,0,0,1,33,41.88c6.4-2,13.23-.84,17.41,2.92a14.54,14.54,0,0,1,3.39,4.6l.1.15a2.34,2.34,0,0,1,.42.91c.07.23.14.45.22.64s.17.33.25.49.26.46.22.68l0,.23.16.15a.58.58,0,0,1,.18.62l-.05.15.05.14A7.28,7.28,0,0,1,55.86,56c0,.39.12.8.2,1.2a7.58,7.58,0,0,1,.23,2v.1l0,.09a6,6,0,0,1,.23,1.7c0,.26,0,.52,0,.77l0,.15.09.1c0,.06.05.08,0,.3v.21c0,.17,0,.33.08.5a2.39,2.39,0,0,1,.09.87v.06l0,.07a3.64,3.64,0,0,1-.54,3.36,5,5,0,0,1-3.08,1,13.65,13.65,0,0,0-1.53.2,6.37,6.37,0,0,0-2.18.32,12.63,12.63,0,0,0-2.95.3,11.38,11.38,0,0,0-1.19.14,6.55,6.55,0,0,1-1.89.14C41.94,69,41.24,68,41.27,66.09V66l0-.06a4.84,4.84,0,0,1-.24-2v-.15l-.09-.13c-.09-.11-.09-.12,0-.36l0-.11,0-.11a3.59,3.59,0,0,1-.12-1c0-.29-.09-.58-.13-.87a7.67,7.67,0,0,1-.16-1.62v-.07l0-.07a7.58,7.58,0,0,1-.2-1.44A9,9,0,0,0,40,56.14a1.86,1.86,0,0,0-2.12-1.28A2.23,2.23,0,0,0,36,57.07v.1l0,.09a.9.9,0,0,1,.09.52c0,.13,0,.27,0,.47s.09.32.13.48a2.41,2.41,0,0,1,.16.78,4.12,4.12,0,0,0,.24,1.94,2.82,2.82,0,0,0,.14,1.09,26.53,26.53,0,0,0,.71,5.13l0,.09c2.3,4.33,7.17,6.62,10.61,8,3.85,1.8,8.89,5.06,11,10.36a27.18,27.18,0,0,1,1.2,6.85l.05.41a9.93,9.93,0,0,1,.28,2.06,11.13,11.13,0,0,0,.34,2.29,11.47,11.47,0,0,0,.2,2.33,13.23,13.23,0,0,1,.22,2.06v0a17.45,17.45,0,0,1-5,12.79,17.76,17.76,0,0,1-12.8,5.47C33.53,121.23,27.06,115.24,26,103.91ZM65.36,218.66a54.19,54.19,0,0,1-9,.3c-2.07,0-4.2-.08-6.41,0-.44,0-.91,0-1.38-.06-2.36,0-4.41-.07-4.35-3.15v-19c0-9.93,0-20.16,0-30.61v-.45a.74.74,0,0,0,0-.25c0-.76,0-1.54,0-2.3v-.07l0-.07a3.14,3.14,0,0,1,0-1.34,5.57,5.57,0,0,0,.06-1.19,11.65,11.65,0,0,1-.06-2.43c0-.4,0-.8,0-1.21l0-1.05c0-2.53-.08-5.38.05-7.85a20.12,20.12,0,0,1,0-3.64v-.09c-.18-1.29.12-2.92,1.41-3.54a11.11,11.11,0,0,1,3.42-.26,16.93,16.93,0,0,0,2.26,0c1.87.12,3.75.07,5.58,0,4.05-.09,8.24-.2,12.48,1.53C76.42,145,80.13,152,79.94,161.64c-.2,11.41-.17,26,.11,38h0C80.57,208.79,74,217.31,65.36,218.66Zm53.75-.39a4,4,0,0,1-3.52.91H111.1c-.29,0-.6,0-.93,0a4.28,4.28,0,0,1-2.83-.53c-1.81-.9-2-3.27-2-5.45v-.1a13.07,13.07,0,0,1-.23-2.34,17.17,17.17,0,0,0-.18-2.11l-.06-.37h-.38c-1,0-2,0-3,0-1.36,0-2.75-.05-4,0l-.35,0,0,.33c-.16,1-.23,2.14-.3,3.31a33.73,33.73,0,0,1-.39,4v0a3.13,3.13,0,0,1-1.26,2.21,5.22,5.22,0,0,1-3.9.87c-1.55,0-3.24,0-4.92,0a4,4,0,0,1-3.59-1,3.64,3.64,0,0,1-.4-3.47c.14-1,.24-2,.33-3,.07-.72.14-1.43.23-2.16.37-2.64.69-5.26,1-8,.23-1.83.46-3.69.71-5.62,1.18-10.17,2.51-20.84,3.81-30.86.34-3.12.77-6.49,1.18-9.74s.83-6.59,1.18-9.73C91,141.46,92,141,95.62,141l1.09,0c3.59,0,6.53,0,9.54-.05s4.2.36,4.58,3.19c.25,2,.52,4,.8,5.9.46,3.25.87,6.68,1.26,10,.24,2,.47,3.92.72,5.84s.5,4.13.77,6.2c.4,3.06.82,6.23,1.1,9.25.68,4.9,1.3,9.94,1.89,14.8.44,3.59.89,7.23,1.36,10.86.1,1.31.27,2.61.45,3.87s.32,2.3.42,3.54C120,216.09,119.84,217.44,119.11,218.27ZM116.54,78.72c.24,1.43.38,2.86.53,4.25.15,1.63.33,3.31.63,5,.25,2.54.59,5.09.9,7.56.26,2,.52,4,.75,6.09.17,1.26.32,2.62.43,4.08l.08.38a4.3,4.3,0,0,1-.07,2.9c-.56,1.58-2.67,1.7-4.21,1.79l-.48,0c-.86.13-1.62.23-2.38.33-1,.13-2,.26-3.11.46-1.4.2-3.41.37-4.47-.53a2.62,2.62,0,0,1-.79-2.06c-.22-1.08-.33-2.23-.45-3.33a32.06,32.06,0,0,0-.52-3.65l0-.2c-1.25-10.66-2.52-21.12-3.89-32.19-1-7.78-2-15.87-3.07-24.55-.07-.84-.17-1.67-.28-2.5s-.43-3.08-.53-3.68v-.09c-.26-1.67-.19-3.75,1.61-4.36,2.35-.47,4.65-.62,6.86-1,2-.16,3.84-.41,5.82-.65,1.66-.21,3.37-.42,5.13-.6a16.87,16.87,0,0,1,11.67,4.09c5.55,4.21,6.2,11.43,6.77,17.8.06.62.1,1.23.16,1.85.22,1.23.36,2.4.51,3.63s.31,2.59.55,4a9.82,9.82,0,0,1-4.41,9.15l-.3.18.13.34c1.18,3.06,2.37,6,3.62,9.07,1.07,2.63,2.16,5.3,3.25,8.09.75,2,1.61,4.11,2.43,6.09,1.14,2.78,2.33,5.65,3.3,8.59-.23,2.4-2.17,2.64-4.22,2.9-.38,0-.74.1-1,.15a22.08,22.08,0,0,0-2.83.31,16.12,16.12,0,0,1-3.5.28c-2.83.18-3.69-2.83-4.37-5.25l-.15-.51c-.79-1.78-1.4-3.55-2.07-5.43-.2-.59-.41-1.18-.63-1.8-.76-1.87-1.46-3.84-2.13-5.73s-1.41-4-2.23-6c-.41-1-1.08-2.79-1.56-4.05-.27-.68-.43-1.11-.55-1.37v0h0c-.21-.43-.3-.4-.54-.32l-.35.13ZM159,197.17c.15,5.08.28,10.32-2.95,14.76-2.27,3.68-6.61,6.33-11.59,7.11-1,0-1.92.05-2.9.08-2.07.06-4.21.13-6.3,0l-2.26,0c-1.49,0-2.9,0-4.43,0-1.48.22-3.48.25-4.54-.79a3.53,3.53,0,0,1-.71-3c0-4.76,0-9.6,0-14.47,0-8.06,0-16.41,0-24.53-.14-5-.11-10.21-.07-15.25,0-4.25.06-8.65,0-12.93,0-.55,0-1.08,0-1.57,0-2.11,0-3.62.8-4.47s2.29-1.11,5-1.11h4.55c3,0,5.79,0,8.74-.1a16,16,0,0,1,11.72,5c3.52,3.81,5.29,9.56,5,16.18-.07,1.56,0,3.13,0,4.64,0,1.24.07,2.52,0,3.81a10.13,10.13,0,0,1-3.1,7.37,6.3,6.3,0,0,1-4.34,1.74c-.19,0-.39,0-.59,0l-.07.85a4.32,4.32,0,0,0,.62.05,7.27,7.27,0,0,1,5,2.33c2.78,3.1,2.72,8.72,2.42,12.73C158.94,196,159,196.61,159,197.17Zm37.89,14.76c-2.27,3.68-6.62,6.33-11.58,7.11-1,0-1.94.05-2.91.08-2.07.06-4.21.13-6.3,0l-2.26,0c-1.5,0-2.9,0-4.42,0-1.5.22-3.5.25-4.55-.79a3.5,3.5,0,0,1-.71-3c0-4.76,0-9.6,0-14.47,0-8.06-.05-16.41.06-24.53-.15-5-.12-10.21-.08-15.25,0-4.25.06-8.65,0-12.93,0-.55,0-1.08,0-1.57,0-2.11,0-3.62.8-4.47s2.29-1.11,5-1.11h4.55c3,0,5.78,0,8.75-.1a16,16,0,0,1,11.71,5c3.52,3.81,4.93,9.05,5,16.18,0,1.95.11,7.16.07,8.45a10.1,10.1,0,0,1-3.11,7.37,6.26,6.26,0,0,1-4.33,1.74l-.59,0-.07.85a4.18,4.18,0,0,0,.61.05,7.3,7.3,0,0,1,5,2.33c2.77,3.1,2.44,13.85,2.46,14.41C200,202.25,200.09,207.49,196.86,211.93Zm36.38,1c0,1.11,0,2.36,0,3.78a2.33,2.33,0,0,1-.81,1.68c-1.16,1-3.31.88-5.33.68-1.34.08-2.56.08-3.86.08-.93,0-1.85,0-2.8,0-1.32-.08-2.64-.06-4,0s-3,.05-4.6-.06a15.26,15.26,0,0,1-2.53,0h-.1a3.83,3.83,0,0,1-3.16-.6c-1.29-.85-1.11-3-1-3.9v-.11a25.94,25.94,0,0,1,0-4l0-1.74c0-2.84-.07-5.52,0-8.31-.1-5.71-.08-11.46-.05-17,0-4.53,0-9.2,0-13.79,0-1.69,0-3.38,0-5.07,0-4.12,0-8.39-.05-12.39l0-.92c0-1.74,0-3.26,0-5,0-.25,0-.49,0-.74-.08-1.49-.16-3,1-4a4.28,4.28,0,0,1,2.94-.62c.35,0,.7,0,1,0a9.75,9.75,0,0,0,1.87,0,8.17,8.17,0,0,1,1.81.06l.09,0,.1,0a6,6,0,0,1,1.7,0,9.18,9.18,0,0,0,1.58,0,3.78,3.78,0,0,1,3,.82,2.26,2.26,0,0,1,.71,1.91c.12,4.82.08,9.79.06,14.59,0,2.18,0,4.38,0,6.56,0,3.62,0,7.22,0,10.71,0,5,0,10.07-.07,15.25.14,2.59.1,5.29.08,7.9,0,1.91,0,3.89,0,5.8v.42h.42c1.92,0,3.52,0,4.93,0,3.49-.06,5.42-.1,6.27.74S233.29,208.64,233.24,213Zm35.18-60.55c.09,1.37.19,2.67-.81,3.53-1,1-2.66.9-4,.79l-.51,0c-1,.1-2,.09-3.06.09-.69,0-1.39,0-2,0s-1.44,0-2.15,0a22,22,0,0,1-2.31,0l-.45,0,0,.45a19.37,19.37,0,0,0,0,2l0,.69c-.13,2.6-.09,5.22-.07,7.77,0,1.16,0,2.33,0,3.52a2.84,2.84,0,0,1,0,.42.91.91,0,0,0,1.2,1.14,25.59,25.59,0,0,1,2.77,0h1.26c1.11,0,2.16,0,3.26,0h.1c1.42-.24,3.32-.17,4.41.74a2.49,2.49,0,0,1,.87,2c-.06,1.33-.05,2.65,0,3.94,0,1.1,0,2.25,0,3.44.1,1.62-.17,2.73-.82,3.38s-1.74.94-3.4.87-3.43,0-5.25,0c-1.18,0-2.36,0-3.55,0a.7.7,0,0,0-.66.14,1,1,0,0,0-.18,1,2.13,2.13,0,0,1,0,.33v.06l0,.5a6.83,6.83,0,0,1-.08,2v.13c.07,1.72.07,3.5.06,5.22,0,1.33,0,2.65,0,4a9.91,9.91,0,0,1,0,1.09,6.68,6.68,0,0,0,0,1.48l.05.28.28.07a5.6,5.6,0,0,0,1.36.06,5.35,5.35,0,0,1,1.21,0l.06,0h.08a21.61,21.61,0,0,1,3.13-.06,24.12,24.12,0,0,0,3.07,0c.38,0,.78,0,1.18,0,2.09,0,4.23-.07,4.91,2.12,0,1.34,0,2.68,0,4,0,1.8,0,3.66.06,5.56,0,1.73-.24,2.82-.83,3.43-.78.79-2.19.81-4.14.83h-1.2c-5.25-.12-10.29-.15-15.69-.15l-7,0c-2.58-.49-2.64-2.92-2.45-6.3a14,14,0,0,0,0-3.14c0-1.76,0-3.51,0-5.22.05-2.77.09-5.64,0-8.53.05-10.51,0-20.19,0-30.44V155.15c.05-1.13,0-2.28,0-3.39a44.29,44.29,0,0,1,0-4.45l0-.23c-.13-1.7-.27-3.63.56-5.2,1-1.12,2.48-1.07,3.89-1h.57c1.11-.07,2.22-.06,3.38,0,.73,0,1.46,0,2.2,0,1.37,0,2.76,0,4.16,0,2.43,0,4.93,0,7.42.06l.94,0a16.27,16.27,0,0,1,3.06.07h.08l.09,0c1.24-.27,4-.27,4.55,1.5a10.64,10.64,0,0,1,.35,4.31C268.39,147.79,268.36,151.58,268.42,152.42ZM311.26,218c-.94,1.28-3.51,1.31-5.9,1.16a21.68,21.68,0,0,0-2.28,0c-2.1.09-4.09.17-5.65-1.28a15.49,15.49,0,0,1-1.5-4.87,20.69,20.69,0,0,0-.84-3.45c-.46-2.44-1-4.84-1.59-7.16-.39-1.57-.77-3.14-1.11-4.73l-.66-2.85c-.45-1.94-.9-3.87-1.33-5.83a6.56,6.56,0,0,1-.2-.72c-.27-1-.36-1.35-.81-1.29s-.42.51-.38,1.1c-.09,4.83-.06,9.65,0,14.31s0,9.49,0,14.35c-.29,2.6-3.08,2.61-5.93,2.38h-.11c-.79,0-1.5,0-2.2,0a19.08,19.08,0,0,1-3.29,0h-.12a3.85,3.85,0,0,1-3.19-.56c-.76-.67-1-1.87-1-3.39,0-.53,0-1.1,0-1.7.1-2.46,0-5.12,0-7.45.11-6.47.08-13,.06-19.37,0-5.93,0-12.06,0-18.14q0-3.94,0-7.91c0-4.33-.05-8.8.05-13.28-.06-.79-.11-1.54-.11-2.24v0a4.7,4.7,0,0,1,.92-3.4c.65-.66,1.75-.93,3.37-.81h2.77c1.78,0,3.52,0,5.31,0,1.13.07,2.29.06,3.5,0,3.2,0,6.49-.06,9.48,1.37a17.4,17.4,0,0,1,10.13,12.44,61.8,61.8,0,0,1,.27,8.81c0,2.84,0,5.72,0,8.51.56,4.06-1.11,9.16-5.43,11l-.34.14.09.36c1.12,4.37,2.33,8.91,3.5,13.29,1.54,5.74,3.13,11.68,4.58,17.57C311.79,216.05,311.82,217.25,311.26,218Z"/><path class="cls-1" d="M293,157.4c0-.85,0-2-1.11-2.51a2.51,2.51,0,0,0-1.65-.18l-.32,0c-.47-.16-.72,0-.85.11a.65.65,0,0,0-.1.73c0,3.53,0,7.15,0,10.66,0,2.72,0,5.45,0,8.26a8.29,8.29,0,0,1,0,1.65l0,.52,0,.42.44,0,.65,0a3.26,3.26,0,0,0,2.45-.75,2.46,2.46,0,0,0,.49-2c0-2,0-3.93,0-5.84,0-2.19,0-4.45,0-6.66,0-.57,0-1.14,0-1.71s0-1.3,0-1.94v-.11A3.21,3.21,0,0,1,293,157.4Z"/><path class="cls-1" d="M183.91,193.05l0-.38a9.85,9.85,0,0,0,0-2.6,2.65,2.65,0,0,0-.43-2.34,2.89,2.89,0,0,0-2.59-.74l-.43,0h-.23l-.12.18c-.26.37-.16,6.83-.13,9.12,0,2.49-.1,9.07,0,9.12a1.35,1.35,0,0,0,.43,0h.25a4,4,0,0,0,2.92-.92A1.88,1.88,0,0,0,184,203c-.05-1.37,0-2.89,0-4.37A47.8,47.8,0,0,0,183.91,193.05Z"/></svg>